<svg width="202" height="19" viewBox="0 0 202 19" fill="none" xmlns="http://www.w3.org/2000/svg">
<path d="M0.159091 2.42045V0.545454H13.25V2.42045H7.76136V18H5.64773V2.42045H0.159091ZM16.5121 18V0.545454H27.0462V2.42045H18.6257V8.31818H26.5007V10.1932H18.6257V16.125H27.1825V18H16.5121ZM44.9013 6H42.7876C42.6626 5.39205 42.4439 4.85795 42.1314 4.39773C41.8246 3.9375 41.4496 3.55114 41.0064 3.23864C40.5689 2.92045 40.0831 2.68182 39.549 2.52273C39.0149 2.36364 38.4581 2.28409 37.8786 2.28409C36.8217 2.28409 35.8643 2.55114 35.0064 3.08523C34.1541 3.61932 33.4751 4.40625 32.9695 5.44602C32.4695 6.4858 32.2195 7.76136 32.2195 9.27273C32.2195 10.7841 32.4695 12.0597 32.9695 13.0994C33.4751 14.1392 34.1541 14.9261 35.0064 15.4602C35.8643 15.9943 36.8217 16.2614 37.8786 16.2614C38.4581 16.2614 39.0149 16.1818 39.549 16.0227C40.0831 15.8636 40.5689 15.6278 41.0064 15.3153C41.4496 14.9972 41.8246 14.608 42.1314 14.1477C42.4439 13.6818 42.6626 13.1477 42.7876 12.5455H44.9013C44.7422 13.4375 44.4524 14.2358 44.032 14.9403C43.6115 15.6449 43.0888 16.2443 42.4638 16.7386C41.8388 17.2273 41.1371 17.5994 40.3587 17.8551C39.5859 18.1108 38.7592 18.2386 37.8786 18.2386C36.3899 18.2386 35.0661 17.875 33.907 17.1477C32.7479 16.4205 31.8359 15.3864 31.1712 14.0455C30.5064 12.7045 30.174 11.1136 30.174 9.27273C30.174 7.43182 30.5064 5.84091 31.1712 4.5C31.8359 3.15909 32.7479 2.125 33.907 1.39773C35.0661 0.670454 36.3899 0.306818 37.8786 0.306818C38.7592 0.306818 39.5859 0.434659 40.3587 0.690341C41.1371 0.946023 41.8388 1.32102 42.4638 1.81534C43.0888 2.30398 43.6115 2.90057 44.032 3.60511C44.4524 4.30398 44.7422 5.10227 44.9013 6ZM48.3168 18V0.545454H50.4304V8.31818H59.7372V0.545454H61.8509V18H59.7372V10.1932H50.4304V18H48.3168ZM72.8324 18V0.545454H78.9347C80.1506 0.545454 81.1534 0.755682 81.9432 1.17614C82.733 1.59091 83.321 2.15057 83.7074 2.85511C84.0938 3.55398 84.2869 4.32954 84.2869 5.18182C84.2869 5.93182 84.1534 6.55114 83.8864 7.03977C83.625 7.52841 83.2784 7.91477 82.8466 8.19886C82.4205 8.48295 81.9574 8.69318 81.4574 8.82955V9C81.9915 9.03409 82.5284 9.22159 83.0682 9.5625C83.608 9.90341 84.0597 10.392 84.4233 11.0284C84.7869 11.6648 84.9688 12.4432 84.9688 13.3636C84.9688 14.2386 84.7699 15.0256 84.3722 15.7244C83.9744 16.4233 83.3466 16.9773 82.4886 17.3864C81.6307 17.7955 80.5142 18 79.1392 18H72.8324ZM74.946 16.125H79.1392C80.5199 16.125 81.5 15.858 82.0795 15.3239C82.6648 14.7841 82.9574 14.1307 82.9574 13.3636C82.9574 12.7727 82.8068 12.2273 82.5057 11.7273C82.2045 11.2216 81.7756 10.8182 81.2188 10.517C80.6619 10.2102 80.0028 10.0568 79.2415 10.0568H74.946V16.125ZM74.946 8.21591H78.8665C79.5028 8.21591 80.0767 8.09091 80.5881 7.84091C81.1051 7.59091 81.5142 7.23864 81.8153 6.78409C82.1222 6.32955 82.2756 5.79545 82.2756 5.18182C82.2756 4.41477 82.0085 3.7642 81.4744 3.23011C80.9403 2.69034 80.0938 2.42045 78.9347 2.42045H74.946V8.21591ZM89.1577 18H86.9418L93.3509 0.545454H95.5327L101.942 18H99.7259L94.5099 3.30682H94.3736L89.1577 18ZM89.9759 11.1818H98.9077V13.0568H89.9759V11.1818ZM114.206 4.90909C114.104 4.04545 113.689 3.375 112.962 2.89773C112.234 2.42045 111.342 2.18182 110.286 2.18182C109.513 2.18182 108.837 2.30682 108.257 2.55682C107.683 2.80682 107.234 3.15057 106.911 3.58807C106.592 4.02557 106.433 4.52273 106.433 5.07954C106.433 5.54545 106.544 5.94602 106.766 6.28125C106.993 6.6108 107.283 6.88636 107.635 7.10795C107.987 7.32386 108.357 7.50284 108.743 7.64489C109.129 7.78125 109.484 7.89205 109.808 7.97727L111.581 8.45455C112.036 8.57386 112.541 8.73864 113.098 8.94886C113.661 9.15909 114.197 9.44602 114.709 9.80966C115.226 10.1676 115.652 10.6278 115.987 11.1903C116.322 11.7528 116.49 12.4432 116.49 13.2614C116.49 14.2045 116.243 15.0568 115.749 15.8182C115.26 16.5795 114.544 17.1847 113.601 17.6335C112.663 18.0824 111.524 18.3068 110.183 18.3068C108.933 18.3068 107.851 18.1051 106.936 17.7017C106.027 17.2983 105.311 16.7358 104.788 16.0142C104.271 15.2926 103.979 14.4545 103.911 13.5H106.092C106.149 14.1591 106.371 14.7045 106.757 15.1364C107.149 15.5625 107.643 15.8807 108.24 16.0909C108.842 16.2955 109.49 16.3977 110.183 16.3977C110.99 16.3977 111.714 16.267 112.357 16.0057C112.999 15.7386 113.507 15.3693 113.882 14.8977C114.257 14.4205 114.445 13.8636 114.445 13.2273C114.445 12.6477 114.283 12.1761 113.959 11.8125C113.635 11.4489 113.209 11.1534 112.68 10.9261C112.152 10.6989 111.581 10.5 110.967 10.3295L108.82 9.71591C107.456 9.32386 106.376 8.7642 105.581 8.03693C104.786 7.30966 104.388 6.35795 104.388 5.18182C104.388 4.20454 104.652 3.35227 105.18 2.625C105.714 1.89205 106.43 1.32386 107.328 0.920454C108.232 0.511363 109.24 0.306818 110.354 0.306818C111.479 0.306818 112.479 0.508522 113.354 0.911931C114.229 1.30966 114.922 1.85511 115.433 2.54829C115.95 3.24148 116.223 4.02841 116.251 4.90909H114.206ZM119.965 18V0.545454H130.499V2.42045H122.079V8.31818H129.954V10.1932H122.079V16.125H130.636V18H119.965ZM148.354 6H146.241C146.116 5.39205 145.897 4.85795 145.585 4.39773C145.278 3.9375 144.903 3.55114 144.46 3.23864C144.022 2.92045 143.536 2.68182 143.002 2.52273C142.468 2.36364 141.911 2.28409 141.332 2.28409C140.275 2.28409 139.317 2.55114 138.46 3.08523C137.607 3.61932 136.928 4.40625 136.423 5.44602C135.923 6.4858 135.673 7.76136 135.673 9.27273C135.673 10.7841 135.923 12.0597 136.423 13.0994C136.928 14.1392 137.607 14.9261 138.46 15.4602C139.317 15.9943 140.275 16.2614 141.332 16.2614C141.911 16.2614 142.468 16.1818 143.002 16.0227C143.536 15.8636 144.022 15.6278 144.46 15.3153C144.903 14.9972 145.278 14.608 145.585 14.1477C145.897 13.6818 146.116 13.1477 146.241 12.5455H148.354C148.195 13.4375 147.906 14.2358 147.485 14.9403C147.065 15.6449 146.542 16.2443 145.917 16.7386C145.292 17.2273 144.59 17.5994 143.812 17.8551C143.039 18.1108 142.212 18.2386 141.332 18.2386C139.843 18.2386 138.519 17.875 137.36 17.1477C136.201 16.4205 135.289 15.3864 134.624 14.0455C133.96 12.7045 133.627 11.1136 133.627 9.27273C133.627 7.43182 133.96 5.84091 134.624 4.5C135.289 3.15909 136.201 2.125 137.36 1.39773C138.519 0.670454 139.843 0.306818 141.332 0.306818C142.212 0.306818 143.039 0.434659 143.812 0.690341C144.59 0.946023 145.292 1.32102 145.917 1.81534C146.542 2.30398 147.065 2.90057 147.485 3.60511C147.906 4.30398 148.195 5.10227 148.354 6ZM152.486 18H150.27L156.679 0.545454H158.861L165.27 18H163.054L157.838 3.30682H157.702L152.486 18ZM153.304 11.1818H162.236V13.0568H153.304V11.1818ZM167.989 0.545454H170.511L176.443 15.0341H176.648L182.58 0.545454H185.102V18H183.125V4.73864H182.955L177.5 18H175.591L170.136 4.73864H169.966V18H167.989V0.545454ZM189.34 18V0.545454H195.238C196.607 0.545454 197.727 0.792613 198.596 1.28693C199.471 1.77557 200.119 2.4375 200.539 3.27273C200.96 4.10795 201.17 5.03977 201.17 6.06818C201.17 7.09659 200.96 8.03125 200.539 8.87216C200.124 9.71307 199.482 10.3835 198.613 10.8835C197.744 11.3778 196.63 11.625 195.272 11.625H191.045V9.75H195.204C196.141 9.75 196.894 9.58807 197.462 9.2642C198.031 8.94034 198.442 8.50284 198.698 7.9517C198.96 7.39489 199.09 6.76705 199.09 6.06818C199.09 5.36932 198.96 4.74432 198.698 4.19318C198.442 3.64205 198.028 3.21023 197.454 2.89773C196.88 2.57955 196.119 2.42045 195.17 2.42045H191.454V18H189.34Z" fill="black"/>
</svg>
